<svg xmlns="http://www.w3.org/2000/svg"  viewBox="0 0 30 30"><path d="M13 0a3.348 3.348 0 0 0-3.333 3.333c0 2.274 1.263 5.097 2.593 7.75-1.04 3.256-2.22 6.744-3.729 9.688-3.089 1.212-5.844 2.113-7.5 3.448a.963.963 0 0 0-.073.083A3.377 3.377 0 0 0 0 26.667 3.348 3.348 0 0 0 3.333 30c.892 0 1.753-.333 2.375-.969a.79.79 0 0 0 .063-.052c1.219-1.456 2.657-4.096 3.937-6.51 2.952-1.161 6.046-2.343 9.032-3.052 2.179 1.756 5.332 2.916 7.927 2.916A3.348 3.348 0 0 0 30 19a3.348 3.348 0 0 0-3.333-3.333c-2.081 0-5.105.742-7.417 1.52-1.874-1.759-3.596-3.956-4.833-6.291.884-2.724 1.916-5.45 1.916-7.563A3.348 3.348 0 0 0 13 0zm0 2c.748 0 1.333.585 1.333 1.333 0 1-.535 2.843-1.156 4.823-.83-1.926-1.51-3.775-1.51-4.823C11.667 2.585 12.252 2 13 2zm.573 11.406a26.73 26.73 0 0 0 3.458 4.396c-1.977.54-3.907 1.233-5.812 1.958.92-2.076 1.657-4.232 2.354-6.354zm13.094 4.26c.748 0 1.333.586 1.333 1.334 0 .748-.585 1.333-1.333 1.333-1.502 0-3.637-.678-5.344-1.625 1.959-.554 4.097-1.041 5.344-1.041zM6.77 23.637c-.938 1.673-1.87 3.234-2.521 4.02-.223.213-.519.344-.917.344A1.32 1.32 0 0 1 2 26.667c0-.352.15-.702.354-.927.782-.606 2.483-1.33 4.417-2.105z"/></svg>
